<svg xmlns="http://www.w3.org/2000/svg" width="1440" height="960" viewBox="0 0 1440 960">
    <defs><filter id="shadow" x="-30%" y="-30%" width="160%" height="160%"><feDropShadow dx="0" dy="22" stdDeviation="28" flood-color="#18181b" flood-opacity="0.10"/></filter></defs>
    <style>
  .bg { fill: #fbfdfd; }
  .shell { fill: #ffffff; stroke: #e4e4e7; stroke-width: 1; }
  .panel { fill: #ffffff; stroke: #e4e4e7; stroke-width: 1; }
  .wash { fill: #f6faf9; stroke: #dfe9e6; stroke-width: 1; }
  .muted { fill: #f4f4f5; stroke: #e4e4e7; stroke-width: 1; }
  .ink { fill: #18181b; }
  .body { fill: #52525b; }
  .subtle { fill: #71717a; }
  .green { fill: #16a34a; }
  .danger { fill: #b42318; }
  .warn { fill: #a15c07; }
  .soft-green { fill: #eaf7f1; }
  .mono { font-family: 'Geist Mono', SFMono-Regular, Consolas, monospace; }
  text { font-family: Geist, Arial, sans-serif; dominant-baseline: auto; }
  .display { font-family: Commissioner, Geist, Arial, sans-serif; font-weight: 600; }
  .label { font-size: 11px; font-weight: 600; letter-spacing: 2.4px; fill: #71717a; }
  .small { font-size: 12px; fill: #71717a; }
  .copy { font-size: 15px; fill: #52525b; }
  .title { font-size: 34px; font-weight: 600; fill: #18181b; }
  .h1 { font-size: 58px; font-weight: 600; fill: #18181b; }
  .buttonText { font-size: 15px; font-weight: 600; fill: #ffffff; }
</style>
    <rect width="1440" height="960" class="bg"/>
    <rect x="34" y="34" width="1372" height="892" rx="24" class="shell"/>
    <g transform="translate(74 64)">
    <rect x="0" y="0" width="42" height="42" rx="13" fill="#18181b"/>
    <path d="M13 28h16M13 21h22M13 14h12" stroke="#fff" stroke-width="2.4" stroke-linecap="round"/>
    <text x="56" y="18" font-size="18" font-weight="600" class="ink">ShipRepo</text>
    <text x="56" y="38" font-size="12" class="subtle">Repo to Sealos app</text>
    <text x="1044" y="24" font-size="13" class="subtle">web-shop · main · run #184</text>
    <rect x="1178" y="1" width="112" height="38" rx="19" class="muted"/>
    <text x="1206" y="25" font-size="13" font-weight="600" class="ink">Publish</text>
  </g>
    <g transform="translate(82 136)"><rect width="250" height="742" rx="20" fill="#fafafa" stroke="#e4e4e7"/><g transform="translate(15 24)"><text class="label" x="0" y="0">RUNS</text><g transform="translate(0 32)"><rect x="0" y="0" width="220" height="56" rx="14" fill="#eef8f2" stroke="#e4e4e7"/><text x="18" y="24" font-size="14" font-weight="600" class="ink">web-shop</text><text x="18" y="43" class="small">Preview ready</text><rect x="0" y="72" width="220" height="56" rx="14" fill="#fff" stroke="#e4e4e7"/><text x="18" y="96" font-size="14" font-weight="600" class="ink">docs-site</text><text x="18" y="115" class="small">No active run</text><rect x="0" y="144" width="220" height="56" rx="14" fill="#fff" stroke="#e4e4e7"/><text x="18" y="168" font-size="14" font-weight="600" class="ink">api-gateway</text><text x="18" y="187" class="small">No active run</text><rect x="0" y="216" width="220" height="56" rx="14" fill="#fff" stroke="#e4e4e7"/><text x="18" y="240" font-size="14" font-weight="600" class="ink">waitlist</text><text x="18" y="259" class="small">No active run</text></g></g></g>
    <g transform="translate(372 136)"><rect width="700" height="742" rx="22" class="panel"/><g transform="translate(38 38)">
      <text class="label" x="0" y="0">CURRENT RESULT</text><text x="0" y="62" font-size="44" font-weight="600" class="display ink">Preview is ready</text>
      <rect x="0" y="92" width="624" height="78" rx="18" fill="#eef8f2" stroke="#d7eadf"/><text x="24" y="124" font-size="15" font-weight="600" fill="#12843d">web-shop-pr-184.sealos.run</text><text x="24" y="150" font-size="13" class="body">Health check passed · Node runtime · Image built successfully</text>
      <rect x="0" y="204" width="160" height="48" rx="24" class="green"/><text x="36" y="234" class="buttonText">Open preview</text><rect x="174" y="204" width="114" height="48" rx="24" fill="#fff" stroke="#d4d4d8"/><text x="202" y="234" font-size="15" font-weight="600" class="ink">Publish</text>
      <text x="0" y="314" font-size="20" font-weight="600" class="ink">Before publishing</text>
      <g transform="translate(0 344)"><circle cx="10" cy="10" r="10" fill="#f4f4f5" stroke="#d4d4d8"/><text x="32" y="15" font-size="15" font-weight="600" class="ink">Review deployment file changes</text><text x="32" y="37" class="small">Required for a production deploy decision.</text></g><g transform="translate(0 402)"><circle cx="10" cy="10" r="10" fill="#f4f4f5" stroke="#d4d4d8"/><text x="32" y="15" font-size="15" font-weight="600" class="ink">Confirm production environment variables</text><text x="32" y="37" class="small">Required for a production deploy decision.</text></g>
      <text x="0" y="505" font-size="20" font-weight="600" class="ink">Changed files</text>
      <rect x="0" y="530" width="624" height="36" rx="10" fill="#fafafa" stroke="#e4e4e7"/><text x="16" y="554" font-size="13" class="mono" fill="#3f3f46">Dockerfile · generated for production image</text><rect x="0" y="574" width="624" height="36" rx="10" fill="#fafafa" stroke="#e4e4e7"/><text x="16" y="598" font-size="13" class="mono" fill="#3f3f46">.dockerignore · keeps image smaller</text><rect x="0" y="618" width="624" height="36" rx="10" fill="#fafafa" stroke="#e4e4e7"/><text x="16" y="642" font-size="13" class="mono" fill="#3f3f46">sealos.yaml · defines runtime target</text>
    </g></g>
    <g transform="translate(1100 136)"><rect width="258" height="742" rx="22" fill="#fafafa" stroke="#e4e4e7"/><g transform="translate(24 32)"><text x="0" y="0" class="label">CONTEXT</text><text x="0" y="52" font-size="18" font-weight="600" class="ink">Why this is ready</text><text x="0" y="84" font-size="14" class="body">ShipRepo prepared deploy files and verified the runtime before asking for production confirmation.</text><line x1="0" y1="132" x2="210" y2="132" stroke="#e4e4e7"/><text x="0" y="172" font-size="14" font-weight="600" class="ink">Follow-up</text><rect x="0" y="196" width="210" height="118" rx="16" fill="#fff" stroke="#e4e4e7"/><text x="16" y="226" class="small">Ask to change port, add env, or create a PR...</text></g></g>
  </svg>